<?xml version="1.0" encoding="utf-8"?>
<!-- Generator: Adobe Illustrator 21.1.0, SVG Export Plug-In . SVG Version: 6.00 Build 0)  -->
<svg version="1.1" id="Calque_1" xmlns="http://www.w3.org/2000/svg" xmlns:xlink="http://www.w3.org/1999/xlink" x="0px" y="0px"
	 viewBox="0 0 432 432" style="enable-background:new 0 0 432 432;" xml:space="preserve">
<style type="text/css">
	.st0{fill:#95C11F;}
	.st1{fill:#1284BB;}
	.st2{fill:#412813;}
	.st3{fill:#9C4F16;}
	.st4{fill:#D16514;}
	.st5{fill:#AD5717;}
	.st6{fill:#FFFFFF;}
	.st7{fill:#F39200;}
	.st8{fill:#3AAE6A;}
	.st9{fill:#3AAA35;}
	.st10{fill:#7D4E24;}
	.st11{fill:#7CBC60;}
	.st12{fill:#BE1622;}
	.st13{fill:#E94E1B;}
	.st14{fill:#3C3C3B;}
</style>
<path class="st0" d="M210,304.9c1.3,0,2.7,0,4,0c7.9-0.2,16-1.3,24-3c1.5-10.7,3-21.4,4.7-32c-2.5-0.2-4.9-0.4-7.4-0.6
	c-7.6-0.4-15.2-0.5-22.9-0.3c0.7,10,0.3,20-1.3,30C210.8,300.9,210.4,302.9,210,304.9z"/>
<path class="st0" d="M268,285.8c6-3.2,11.6-6.9,16.8-11c-1.7-0.4-3.4-0.9-5-1.3c-0.6-0.1-1.1-0.3-1.7-0.4c-0.6-0.1-1.2-0.3-1.8-0.4
	c-3.1-0.7-6.2-1.4-9.3-2c0.2,2.7,0.4,5.5,0.4,8.3c0,0.6,0,1.3,0,1.9c0,1.7,0,3.5,0,5.2C267.6,286,267.8,285.9,268,285.8z"/>
<path class="st0" d="M166.4,294.7c0.7,0.4,1.4,0.8,2.1,1.2c4.3,2.4,8.8,4.5,13.6,6.2c1.7,0.6,3.5,1.2,5.2,1.7c0-0.4,0.1-0.8,0.1-1.2
	c0.1-0.5,0.1-0.9,0.1-1.4c0.1-0.5,0.1-1,0.2-1.6c0.8-8.1,1-16.3,0.5-24.5c-6.7,1-13.3,2.3-19.8,3.8c-6.3,1.5-12.7,2.7-18.7,5.2
	c5.2,3.5,10.2,6.9,15.5,9.9C165.7,294.2,166.1,294.5,166.4,294.7z"/>
<g>
	<path class="st14" d="M267,301.2c-0.3,0.2-0.3,0.4-0.3,0.7c-1,7.7-2.8,15.3-5.3,22.7c-0.1,0.4-0.3,0.7-0.4,1.1
		c-0.3,1.1-0.1,1.7,0.9,2.3c1,0.6,2,1.1,3.1,1.4c1.5,0.4,2.9,1.1,4.3,1.9c6.6,3.8,6.8,11.1,3.8,16c-2,3.2-4.9,5.1-8.3,6.3
		c-3.1,1-6.3,1.3-9.5,1.1c-4.2-0.3-8.3-1.2-12.2-3c-5.3-2.4-8.4-6.5-9.5-12.2c-0.6-3.2-0.6-6.5-0.4-9.7c0.2-2.8,0.6-5.6,0.9-8.4
		c0.5-4.1,1-8.2,1.6-12.3c0.3-2.1,0.6-4.3,0.8-6.4c0.1-0.8,0.1-0.8-0.7-0.6c-5.5,1.1-11,1.8-16.5,2.1c-1.6,0.1-3.2,0.1-4.8,0.1
		c-0.8,0-0.8,0-1,0.8c-0.8,3.5-2.1,6.9-3.6,10.2c-0.7,1.6-1.3,3.3-1.6,5c-0.1,0.7-0.2,1.4-0.2,2.2c0,1.2,0.5,2.2,1.1,3.1
		c0.7,1,1.6,1.9,2.6,2.7c1,0.9,2,1.8,3,2.8c2.1,2.2,2.9,4.9,2.8,7.9c-0.3,6.5-4.6,13.1-12.8,15c-7.1,1.6-13.8,0.2-19.9-3.6
		c-1.5-0.9-2.9-2.2-3.9-3.6c-1.2-1.7-1.9-3.6-2.1-5.7c0-0.4,0-0.8-0.2-1.3c-0.2,1.4-0.5,2.7-1.1,3.9c-2,3.9-5.2,6.2-9.4,7
		c-2.5,0.5-5.1,0.3-7.6-0.4c-6-1.6-11.3-4.6-15.8-8.9c-2.1-2-3.5-4.4-3.9-7.4c-0.4-2.4,0.1-4.8,0.9-7.1c0.8-2.1,2-4.1,3.2-6
		c3.8-5.9,7.9-11.7,12-17.4c1.2-1.6,2.3-3.2,3.4-4.9c1.7-2.5,3.3-5,5.3-7.3c0.5-0.5,0.5-0.6-0.1-0.9c-4.9-2.9-9.5-6.2-14.2-9.2
		c-3.7-2.4-7.5-4.3-11.7-5.6c-8.9-2.7-17.3-1.5-25.2,3.4c-4.9,3-9,7-12.6,11.5c-3.2,4-6,8.2-7.8,13c-1.6,4.1-2.5,8.3-2.3,12.7
		c0.2,4.8,1.5,9.2,3.7,13.4c3.4,6.3,8.3,11.1,14.4,14.8c4.8,3,10.1,5.1,15.4,7c3.3,1.1,6.6,2.1,9.9,3.3c1.4,0.5,2.7,1.1,4,1.8
		c0.7,0.4,1.3,0.8,1.8,1.4c1.4,1.5,1.8,4.1-0.7,5.8c-1.2,0.8-2.6,1.3-4,1.7c-3.5,1-7.1,1.5-10.7,1.7c-9.5,0.4-18.6-1.2-27.4-4.5
		c-8-3-15.3-7.3-21.6-13.2c-8.1-7.6-13.6-16.8-16-27.7c-2.2-9.7-1.5-19.3,1.5-28.7c2.3-7.2,6-13.7,10.4-19.8
		c5.4-7.4,11.8-13.8,18.9-19.6c7-5.7,14.4-10.7,22.1-15.4c7-4.3,14.1-8.2,21.2-12.2c11-6.3,21.8-12.9,32.3-20
		c5.6-3.8,11.4-7.4,17.4-10.5c6.1-3.1,12.3-5.7,19-7.1c10.8-2.2,21.3-1.3,31.4,3.1c8.2,3.5,15.7,8.2,22.1,14.4
		c2.6,2.5,5.2,5.1,7.8,7.6c1.2,1.2,2.6,2.2,4.1,3c2.7,1.5,5.3,1.2,7.8-0.4c2.2-1.4,3.9-3.3,5.5-5.3c2.3-3,4.1-6.3,5.5-9.8
		c2.7-6.4,4.8-13,6.8-19.7c2.6-9.1,4.7-18.3,6.8-27.5c1.4-6.4,2.8-12.8,4-19.2c1.4-7.1,2.6-14.3,3.3-21.5c0.5-4.9,0.8-9.8,1-14.7
		c0.2-4.6,0.4-9.2,1.5-13.8c0.5-2,1.1-4,2-5.9c2.3-4.9,6-8.2,10.9-10.4c3.2-1.4,6.5-2.2,9.9-2.7c3.5-0.5,7.1-0.7,10.6-0.7
		c3.6,0,7.2,0.1,10.7,0.8c2.8,0.6,5.5,1.5,8,2.9c4.3,2.4,7.3,6,8.7,10.7c1.8,6,2.1,12.2,0.5,18.3c-1.5,5.9-5.1,10-10.9,12.1
		c-2.8,1.1-5.7,1.6-8.7,1.7c-4,0.2-7.8-0.4-11.6-1.3c-0.9-0.2-0.9-0.2-1,0.7c-0.4,6.1-1.5,12.1-2.5,18.1c-1,5.7-2,11.4-3,17.2
		c-1,5.4-1.9,10.8-3,16.1c-1.7,8.8-3.5,17.6-5.4,26.3c-1.7,7.7-3.7,15.3-5.6,22.8c-1.4,5.4-2.7,10.8-4.1,16.2
		c-1.8,7-3.9,13.9-6.9,20.5c-4,8.8-9.1,16.9-15.8,24c-1.9,2-3.9,3.9-5.9,5.7c-0.2,0.1-0.3,0.3-0.5,0.4c-0.3,0.2-0.3,0.4-0.1,0.7
		c0.1,0.1,0.2,0.3,0.3,0.4c3.5,5.2,6.2,10.7,7.8,16.8c0.5,2.1,0.7,4.2,1,6.3c0.2,1.1,0.4,2.2,0.7,3.3c0.3,1.1,1,1.6,2,1.8
		c0.7,0.2,1.5,0.2,2.3,0.3c2.5,0.2,4.8,1.1,6.7,2.8c2.5,2.2,3.6,5.1,3.4,8.4c-0.2,4.1-2,7.4-4.8,10.2c-3.7,3.7-8,6.4-13,8
		c-1.9,0.6-3.8,0.9-5.7,0.8c-3.7-0.2-6.6-1.8-8.9-4.5c-1.8-2.1-3.1-4.6-4.3-7.1c-2.6-5.7-4.5-11.7-5.9-17.8
		c-0.5-2.1-0.9-4.3-1.3-6.4C267.2,301.8,267.1,301.6,267,301.2z M227.6,267.7C227.6,267.7,227.6,267.7,227.6,267.7
		c0.2,0.1,0.4,0.1,0.6,0.1c4.1,0.1,8.1,0.3,12.2,0.6c0.9,0.1,1.9,0.1,2.8,0.3c1,0.2,1.5,0.8,1.5,1.9c0,0.2,0,0.4-0.1,0.5
		c-0.8,4.8-1.5,9.6-2.3,14.4c-0.7,4.4-1.3,8.7-1.9,13.1c-0.7,5.1-1.3,10.1-2,15.2c-0.7,6-1.4,12.1-1.9,18.1
		c-0.2,2.4-0.1,4.9,0.3,7.3c0.7,3.6,2.5,6.5,5.6,8.5c1.2,0.8,2.4,1.4,3.7,1.9c4.4,1.6,8.9,2.1,13.6,1.6c1.9-0.2,3.8-0.6,5.5-1.5
		c2.3-1.1,4.2-2.7,5.4-5.1c1.7-3.5,0.9-6.9-2.2-9.3c-0.6-0.5-1.2-0.9-1.9-1.2c-1.3-0.7-2.6-1.3-4-1.7c-1.1-0.4-2.2-0.8-3.2-1.4
		c-1.6-1-2.4-2.5-2.2-4.4c0.1-0.8,0.3-1.6,0.6-2.4c0.5-1.5,1-3.1,1.5-4.6c2.1-6.9,3.5-13.9,4.2-21c0.3-3,0.5-5.9,0.6-8.9
		c0.1-3.2,0.1-6.4,0-9.7c-0.1-2.1-0.2-4.2-0.4-6.3c-0.1-1.3,0.8-2.1,2.1-1.9c0.1,0,0.2,0.1,0.4,0.1c5.4,1.1,10.9,2.1,16.2,3.9
		c0.9,0.3,1.6,0.2,2.3-0.4c0.2-0.2,0.5-0.4,0.7-0.6c1.2-1.1,2.4-2.2,3.5-3.3c4.9-4.8,8.9-10.2,12.3-16.1c3.7-6.2,6.4-12.8,8.6-19.7
		c2-6.2,3.6-12.6,5.2-18.9c2.6-10.1,5.1-20.2,7.3-30.3c2.7-12.1,5.1-24.2,7.3-36.4c1.8-9.8,3.6-19.7,5.2-29.5
		c0.7-4.2,1.2-8.5,1.4-12.8c0-0.3,0-0.6,0.1-0.9c0.2-1,1.1-1.6,2.1-1.3c0.3,0.1,0.5,0.2,0.8,0.2c5.1,1.6,10.2,2.3,15.6,1.6
		c2.4-0.3,4.8-1,6.9-2.2c3.6-2.1,5.8-5.3,6.7-9.2c1.1-4.6,1.1-9.2,0-13.7c-1.7-6.6-5.8-10.9-12.4-12.8c-2.9-0.8-5.8-1.2-8.7-1.2
		c-4.1-0.1-8.2,0.2-12.3,0.7c-3,0.3-6,0.9-8.8,1.8c-5.6,1.9-9.5,5.6-11.6,11.2c-0.8,2.1-1.4,4.3-1.7,6.5c-0.7,4.5-0.9,8.9-1,13.4
		c-0.1,2.9-0.1,5.8-0.3,8.7c-0.5,6.5-1.5,12.9-2.6,19.2c-1.4,8-3.1,15.9-4.8,23.8c-1.7,7.8-3.5,15.7-5.6,23.4
		c-2.2,8.1-4.7,16.1-7.8,23.9c-1.6,4-3.5,8-6,11.6c-1.7,2.4-3.6,4.6-6.2,6.3c-3.9,2.5-8,3-12.2,0.8c-1.5-0.8-2.9-1.7-4.1-2.8
		c-2.1-1.8-4-3.8-5.9-5.9c-1.7-1.8-3.3-3.7-5.2-5.2c-6-4.8-12.5-8.9-19.7-11.7c-9.3-3.6-18.8-4.5-28.5-2.2c-6.5,1.5-12.5,4-18.4,7.1
		c-6.5,3.4-12.6,7.4-18.7,11.4c-5.3,3.5-10.6,7-16,10.4c-6.8,4.2-13.7,8-20.6,11.9c-7.1,4-14.2,8-21,12.5
		c-9.2,6-17.8,12.6-25.5,20.4c-3.4,3.5-6.5,7.2-9.3,11.2c-5.5,7.8-9.3,16.3-10.8,25.8c-1.1,6.8-0.8,13.6,1.1,20.2
		c2.6,9.1,7.7,16.8,14.5,23.2c4.9,4.7,10.5,8.4,16.6,11.3c6.6,3.1,13.6,5.1,20.9,5.8c4.9,0.5,9.8,0.1,14.7-0.3
		c2-0.2,3.9-0.6,5.8-1.3c0.3-0.1,0.7-0.3,1-0.5c0.5-0.3,0.5-0.5,0.1-1c-0.4-0.4-0.8-0.7-1.3-1c-1.4-0.8-2.8-1.4-4.3-1.9
		c-2.7-0.9-5.4-1.8-8-2.7c-4.3-1.4-8.5-3-12.6-5.1c-7.1-3.7-13.1-8.7-17.5-15.5c-4.2-6.5-6.3-13.5-5.9-21.2
		c0.3-4.8,1.6-9.3,3.8-13.5c2.7-5.4,6.2-10.2,10.3-14.6c3.7-4,7.9-7.5,12.7-10.1c4.7-2.5,9.6-3.9,14.9-3.9c3.7,0,7.4,0.6,11,1.7
		c4.3,1.3,8.3,3.3,12.1,5.7c0.5,0.3,0.8,0.4,1.3,0.1c4.5-2,9.3-3.3,14.1-4.5c6.4-1.5,12.9-2.5,19.5-3.5c0.7-0.1,1.3-0.2,2-0.2
		c1,0,1.7,0.6,1.8,1.6c0,0.2,0,0.4,0,0.6c0.3,4.1,0.4,8.2,0.2,12.3c-0.1,2-0.1,3.9-0.3,5.9c-0.3,4.1-0.8,8.2-1.4,12.2
		c-0.8,5.4-1.8,10.9-3,16.2c-1,4.6-2.4,9.2-3.5,13.8c-0.5,2.2-1.1,4.4-1.2,6.6c-0.1,3.1,0.9,5.6,3.4,7.5c1.9,1.4,4.1,2.4,6.3,3.2
		c4,1.3,8.1,1.6,12.2,0.5c4.9-1.3,8.3-4.5,9.6-9.4c1-3.6,0.1-6.9-2.9-9.4c-0.6-0.5-1.2-1-1.8-1.5c-0.6-0.5-1.2-1-1.8-1.6
		c-1.7-1.6-2.6-3.5-2.8-5.8c-0.1-1,0.1-2,0.2-3c0.4-2.3,1.3-4.4,2.2-6.5c2.3-5.6,3.8-11.3,4.8-17.3c1.2-7.3,1.6-14.7,1.3-22.1
		c-0.1-1.5-0.2-3-0.2-4.5c0-1.2,0.6-1.9,1.8-2c0.2,0,0.4,0,0.5,0c1.2,0,2.5-0.1,3.7-0.1C221.8,267.6,224.7,267.7,227.6,267.7z
		 M165.2,347.5c0.3,0,0.8,0,1.2-0.1c0.6-0.1,1.2-0.2,1.8-0.4c4.5-1.3,7.7-5,7-10.4c-0.3-2.2-1.2-4.1-2.4-5.8c-1-1.5-2.2-2.8-3.6-4
		c-1.1-1.1-1.1-2.1,0-3.1c1.9-1.8,3.8-3.6,5.5-5.6c4.6-5.1,8.7-10.6,11.6-16.8c0.1-0.2,0.2-0.4,0.3-0.7c0.2-0.3,0-0.5-0.3-0.6
		c-0.1,0-0.2-0.1-0.3-0.1c-5.5-1.7-10.7-4-15.7-6.7c-0.9-0.5-0.9-0.5-1.6,0.2c-1.4,1.3-2.5,2.9-3.6,4.5c-1.2,1.8-2.4,3.8-3.7,5.6
		c-4.3,5.9-8.5,12-12.7,18.1c-1.5,2.1-2.8,4.4-3.7,6.8c-1.4,3.6-0.8,6.9,1.5,10c0.6,0.8,1.2,1.5,2,2.1c3.1,2.8,6.8,4.7,10.7,6
		C161.1,347,163,347.5,165.2,347.5z M307.7,317.7c0-1.2-0.6-2.8-1.8-4.1c-1.6-1.7-3.7-2.4-6-2.5c-1.1-0.1-2.2,0-3.3-0.3
		c-1.3-0.3-2.3-1.1-2.8-2.4c-0.5-1.3-0.8-2.6-0.9-3.9c-0.3-2.3-0.4-4.7-1.1-7c-1.6-5.8-4-11.3-7.4-16.3c-0.5-0.7-0.5-0.7-1.2-0.2
		c-4.4,3.4-9.1,6.4-14,9.1c-0.7,0.4-0.7,0.4-0.6,1.2c0.3,1.2,0.6,2.4,0.7,3.7c0.5,3.2,1,6.5,1.7,9.7c1.2,5.8,2.7,11.6,5,17.1
		c1,2.5,2.2,5,3.6,7.4c0.7,1.2,1.6,2.3,2.7,3.2c2.3,2,5,2.5,7.9,1.8c5.5-1.3,10.2-4,14-8.2C306.5,323.9,307.6,321.3,307.7,317.7z
		 M228.7,271.2c-4.6-0.1-8-0.1-11.5,0c-0.7,0-0.8,0.1-0.7,0.8c0.2,3.2,0.2,6.4,0.2,9.7c-0.1,4.4-0.5,8.8-1.1,13.2
		c-0.3,1.7-0.6,3.5-0.9,5.2c-0.1,0.7-0.1,0.8,0.6,0.8c0.7,0,1.4,0,2.1-0.1c6.4-0.2,12.7-1,18.9-2.3c0.9-0.2,0.9-0.2,1-1.1
		c0.3-2.3,0.6-4.6,1-6.9c0.9-5.8,1.7-11.7,2.6-17.5c0.2-1,0.4-1.1-1.1-1.2C235.7,271.5,231.6,271.3,228.7,271.2z M157.1,280.9
		c0.2,0.3,0.4,0.4,0.6,0.6c3,2,6,4,9.1,5.9c5.7,3.5,11.5,6.5,17.9,8.6c0.6,0.2,1.2,0.4,1.8,0.6c0.7,0.2,0.7,0.2,0.8-0.5
		c0-0.1,0-0.1,0-0.2c0.8-7,1.1-14.1,0.7-21.2c0-0.8-0.1-0.8-0.9-0.7c-0.1,0-0.1,0-0.2,0c-6.2,1-12.3,2.3-18.4,3.7
		c-3.5,0.8-6.9,1.6-10.3,2.7C157.9,280.5,157.5,280.6,157.1,280.9z M178.7,338.1c0.3-3.2,1-6.2,1.9-9.1c1.7-5.3,3-10.8,4-16.3
		c0.1-0.6,0.3-1.2,0.3-1.9c-0.3,0-0.4,0.2-0.5,0.4c-3.3,4.8-7,9.2-11.2,13.2c-0.8,0.8-0.8,0.8,0,1.7c2.8,3.4,4.8,7.1,5.2,11.5
		C178.5,337.8,178.5,338,178.7,338.1z M280.3,278.8c-0.2-0.2-0.5-0.2-0.7-0.3c-2.7-0.7-5.5-1.3-8.2-2c-1.1-0.2-2.1-0.5-3.2-0.7
		c-0.5-0.1-0.6,0-0.6,0.5c0,0.1,0,0.2,0,0.3c0.2,3.1,0.3,6.2,0.3,9.3c0,0.2,0,0.4,0,0.6c0,0.3,0.2,0.4,0.4,0.2
		c0.1-0.1,0.3-0.1,0.4-0.2c3.9-2.2,7.6-4.5,11.1-7.2C280,279.3,280.2,279.1,280.3,278.8z"/>
	<path class="st0" d="M189.1,240.9c0.2,0.4,0.5,0.5,0.7,0.7c2.4,1.8,4.4,4,6.3,6.3c2.5,3.1,5,6.3,7.3,9.6c1.6,2.3,2.9,4.8,4.1,7.3
		c0.1,0.3,0.3,0.6,0.3,0.9c0.1,0.8-0.3,1.5-1,1.9c-0.7,0.3-1.5,0.2-2-0.3c-0.2-0.2-0.4-0.5-0.5-0.7c-2.4-5.4-6-10.1-9.7-14.7
		c-1.4-1.8-2.9-3.6-4.6-5.2c-1.1-1-2.2-1.9-3.4-2.8c-0.7-0.5-0.8-0.5-1.5,0c-1.6,1.1-3.3,2-5,2.9c-0.7,0.4-0.7,0.4-0.4,1.1
		c1.7,5.1,3.2,10.3,4.9,15.3c0.1,0.4,0.3,0.7,0.3,1.2c0,0.8-0.4,1.5-1.2,1.7c-0.8,0.3-1.6,0-2.1-0.7c-0.3-0.4-0.4-0.9-0.6-1.3
		c-1.4-3.9-2.5-7.8-3.8-11.7c-2.7-8.6-5.7-17.2-8.6-25.8c-1.1-3.5-2.1-7-3.2-10.5c-0.4-1.3-0.2-2,0.9-2.9c0.4-0.3,0.9-0.7,1.3-0.9
		c4.5-2.6,9.1-4.8,14-6.4c2.2-0.7,4.5-1.2,6.8-1.3c8.2-0.6,13.1,4.4,14.8,9.7c0.9,2.9,0.7,5.7-0.1,8.5c-1.1,3.8-3.1,7-5.5,10.1
		c-2.3,2.9-5,5.3-7.9,7.6C189.7,240.4,189.4,240.7,189.1,240.9z M178.5,243.3c0.3-0.1,0.6-0.3,1-0.4c3.6-1.8,6.8-4.3,9.9-6.9
		c3.1-2.6,5.7-5.5,7.8-8.8c1.3-2,2.2-4.1,2.8-6.4c1.8-6.4-3-12.2-8.6-12.7c-2.1-0.2-4.2,0.1-6.2,0.5c-2.9,0.6-5.6,1.7-8.3,3
		c-2.4,1.1-4.7,2.2-7,3.5c-0.4,0.2-0.6,0.5-0.4,1c1.1,3,1.8,6.2,2.8,9.2c2,5.9,3.9,11.7,5.9,17.6
		C178.3,243.1,178.3,243.2,178.5,243.3z"/>
	<path class="st0" d="M137.5,263.6c-0.4-1.8-0.8-3.6-1.1-5.3c-1-4.8-1.8-9.5-2.7-14.3c-0.4-2-0.8-4.1-1.2-6.1
		c-0.1-0.3-0.1-0.7-0.1-1c0.1-1.6,1.8-2.5,3.1-1.6c0.3,0.2,0.6,0.5,0.8,0.7c0.8,0.9,1.6,1.7,2.4,2.7c2.7,3.4,5.7,6.4,8.9,9.2
		c4.5,4,8.8,8.3,13.2,12.5c0.2,0.2,0.4,0.5,0.7,0.6c0.2-0.2,0.1-0.3,0-0.5c-2.5-9.5-4.6-19-6.3-28.7c-0.4-2.4-0.8-4.8-1.2-7.2
		c-0.1-0.3-0.2-0.6-0.3-1c-0.5-1.1,0.1-2.2,1.2-2.6c1-0.4,2.1,0.2,2.4,1.4c0.2,0.9,0.3,1.9,0.5,2.9c0.7,5,1.7,10,2.7,15
		c1.6,8,3.6,15.9,5.6,23.8c0.1,0.6,0.3,1.1,0.4,1.7c0.1,0.4,0.1,0.8,0.1,1.3c-0.1,1.6-1.7,2.4-3.1,1.5c-0.4-0.3-0.8-0.7-1.2-1.1
		c-5.5-5.8-11.3-11.2-17.2-16.6c-2.7-2.5-5.4-4.9-7.7-7.7c-0.1-0.1-0.2-0.2-0.4-0.2c0.3,1.5,0.5,2.9,0.8,4.4
		c1.1,6.1,2.4,12.1,3.6,18.1c0.1,0.7,0.2,1.4,0.3,2.1c0,0.3,0,0.6,0,0.9c-0.2,1.5-1.7,2.3-3,1.5c-0.7-0.4-1.3-0.9-1.9-1.5
		c-4.1-3.7-7.9-7.6-11.5-11.8c-2.3-2.7-4.6-5.5-7.1-7.9c-0.8-0.8-1.6-1.6-2.6-2.3c-0.7-0.6-1-1.4-0.7-2.1c0.4-1.1,1.6-1.5,2.6-0.9
		c0.6,0.3,1,0.8,1.5,1.2c2.6,2.4,5,5.1,7.3,7.8c3.2,3.8,6.5,7.4,10.1,10.8C136.9,263.1,137.1,263.4,137.5,263.6z"/>
	<path class="st1" d="M287.1,222.2c-0.3,0.6-0.3,1.1-0.5,1.6c-1.4,5-2.7,10-4.6,14.9c-0.5,1.3-1.1,2.6-1.8,3.9
		c-0.3,0.6-0.7,1.1-1.3,1.5c-1.1,0.8-2.3,0.7-3.2-0.2c-0.4-0.4-0.8-0.9-1.1-1.3c-1-1.5-1.9-3-2.9-4.4c-1.4-2.2-2.9-4.4-4.4-6.5
		c-0.2-0.2-0.3-0.5-0.5-0.6c-0.2,0.2-0.1,0.4-0.1,0.7c-0.1,4.7-0.3,9.3-0.6,13.9c-0.2,2.6-0.5,5.2-0.8,7.8c-0.3,2.6-0.6,5.2-0.9,7.8
		c-0.1,1.1-0.3,2.2-0.4,3.3c-0.1,1-0.9,1.7-1.8,1.7c-0.9,0-1.7-0.8-1.8-1.8c0-0.4,0-0.7,0-1.1c0.8-5.2,1.2-10.4,1.7-15.6
		c0.5-4.8,0.7-9.6,0.8-14.4c0.1-2,0.1-4.1,0.1-6.1c0-0.4,0-0.8,0.1-1.2c0.3-1.7,2-2.4,3.4-1.3c0.4,0.3,0.8,0.8,1.1,1.2
		c2.5,3.2,4.8,6.5,6.9,9.8c0.7,1.1,1.4,2.3,2.2,3.4c0.2,0.3,0.3,0.5,0.6,0.7c0.5-0.8,0.8-1.6,1.1-2.5c1.4-3.6,2.5-7.2,3.5-10.9
		c0.6-2.3,1.2-4.6,1.8-6.9c0.2-0.6,0.3-1.2,0.6-1.7c0.8-1.8,2.8-2.1,4-0.5c0.3,0.4,0.6,0.8,0.9,1.3c1.5,2.4,2.5,5,3.6,7.5
		c2,4.7,5.7,12.4,7.9,17.1c0.5,1,0.9,2,1.6,2.9c0.6,0.8,0.5,1.8-0.2,2.4c-0.7,0.6-1.8,0.6-2.5,0c-0.5-0.4-0.8-1-1.1-1.5
		c-0.6-1.3-1.3-2.6-1.9-3.9c-2.6-5.5-6.4-14-8.9-19.5C287.6,223.3,287.4,222.8,287.1,222.2z"/>
	<path class="st1" d="M228.9,248.9c0-3-0.7-5.6-1.6-8.2c-1.3-3.6-3.2-7-5.3-10.2c-1.7-2.6-3.6-5.2-5.3-7.9c-1.2-1.8-2.4-3.7-3.5-5.7
		c-1.7-3.3-2.8-6.7-2.9-10.4c-0.1-2.6,0.2-5.2,1.2-7.6c0.4-0.9,0.8-1.8,1.4-2.5c2.3-2.9,5.9-3.6,9.1-1.8c1,0.6,1.8,1.3,2.6,2.1
		c3,3.4,4.8,7.4,5.4,11.9c0.1,0.6,0.1,1.2,0,1.8c-0.2,1-1,1.5-1.9,1.5c-0.9-0.1-1.5-0.7-1.6-1.7c-0.1-0.8,0-1.7-0.2-2.5
		c-0.8-3.2-2.1-6.1-4.3-8.5c-0.8-0.9-1.7-1.7-3-1.9c-1.2-0.2-2.2,0.2-2.9,1.1c-1,1.2-1.4,2.6-1.7,4.1c-0.7,3.6-0.2,7.1,1.2,10.4
		c0.8,2,1.9,3.9,3.1,5.8c1.8,2.9,3.8,5.7,5.7,8.5c2.3,3.4,4.4,6.9,6,10.7c1,2.6,1.9,5.3,2.2,8.1c0.3,2.7,0.3,5.3-0.6,7.9
		c-1.4,4.5-5.3,7.2-10,7c-2.9-0.1-5.1-1.4-7-3.5c-1.5-1.6-2.4-3.6-2.9-5.7c-0.2-0.9-0.4-1.8-0.6-2.7c-0.3-1.1,0.2-2,1.2-2.3
		c0.9-0.3,1.9,0.2,2.3,1.3c0.3,0.8,0.4,1.6,0.6,2.5c0.4,1.6,1,3,2,4.3c2.5,3.1,5.8,3.1,8.8,1.3c1-0.6,1.6-1.6,2-2.6
		C228.7,252,228.9,250.4,228.9,248.9z"/>
	<path class="st1" d="M259.5,230.3c-0.1,6.6-0.7,13-2.5,19.4c-0.6,2.2-1.3,4.4-2.4,6.4c-0.8,1.6-1.8,3-3.3,4.1
		c-1.4,1-2.9,1.8-4.7,1.7c-1.3-0.1-2.3-0.6-3.3-1.4c-1.9-1.6-3.1-3.6-4-5.8c-1-2.3-1.5-4.8-1.8-7.3c-0.6-4.7-0.6-9.3-0.2-14
		c0.4-4.3,1.3-8.5,3.1-12.4c1.1-2.4,2.5-4.7,4.7-6.3c1.5-1.1,3.1-2,5-2.2c2-0.2,3.7,0.5,4.9,2.2c0.1,0.1,0.1,0.2,0.2,0.3
		c2.1,2.2,3,4.9,3.7,7.7C259.5,225.2,259.5,227.7,259.5,230.3z M240.8,239.6c0,1.1,0,2.1,0,3.2c0.1,2.7,0.4,5.4,1.1,8
		c0.6,2.2,1.4,4.2,2.9,5.9c1.6,1.8,2.8,1.9,4.7,0.3c0.8-0.7,1.4-1.7,1.9-2.6c1.1-2.1,1.8-4.3,2.4-6.6c1.6-6.4,2.2-12.9,2.1-19.5
		c0-2.2-0.3-4.4-1-6.6c-0.5-1.7-1.2-3.3-2.5-4.5c-0.1-0.1-0.3-0.3-0.4-0.4c-0.4-0.8-1-0.8-1.8-0.7c-0.5,0.1-0.9,0.3-1.4,0.5
		c-1.7,0.8-3,2.1-4,3.8c-1.3,2.2-2.2,4.5-2.8,6.9C241.1,231.3,240.7,235.5,240.8,239.6z"/>
	<path class="st0" d="M117.2,265.8c-2.3,1.5-4.6,2.8-6.9,4.3c-0.1,0.1-0.1,0.1-0.2,0.2c-0.8,0.6-0.8,0.6-0.5,1.5
		c0.2,0.6,0.3,1.2,0.5,1.9c0.2,1.1-0.3,2.1-1.3,2.4c-1,0.3-1.9-0.4-2.2-1.5c-0.5-2-1.1-4-1.6-6c-1-3.9-2-7.9-2.9-11.8
		c-0.2-0.9-0.4-1.8-0.4-2.8c0-1.5,0.8-2.5,2.2-2.7c0.7-0.1,1.3,0.1,1.9,0.3c1.5,0.7,2.9,1.6,4.2,2.6c1.6,1.2,3,2.5,4.5,3.9
		c2.5,2.4,4.9,4.9,7.4,7.3c0.5,0.5,1,0.9,1.5,1.4c0.9,0.9,1,2.1,0.1,2.9c-0.9,0.8-2.4,0.6-3.1-0.4
		C119.5,267.8,118.2,266.9,117.2,265.8z M108.3,267c2.1-1.4,4.1-2.6,6.2-3.9c-1.7-1.8-3.4-3.4-5.2-4.9c-1-0.9-2-1.7-3.2-2.4
		c-0.2-0.1-0.3-0.3-0.6-0.1C106.5,259.4,107.4,263.1,108.3,267z"/>
	<path class="st0" d="M96.9,271.1c0,0.8-0.1,1.7-0.3,2.6c-0.1,0.7-0.1,0.7,0.5,0.8c2,0.5,4,1.1,5.9,1.9c0.2,0.1,0.5,0.2,0.7,0.3
		c1,0.5,1.4,1.5,1,2.4c-0.4,0.9-1.6,1.4-2.6,0.9c-1.8-0.9-3.6-1.4-5.5-1.9c-0.3-0.1-0.6-0.2-1-0.2c-0.3,0-0.5,0.1-0.7,0.4
		c-0.4,0.7-0.9,1.5-1.3,2.2c-0.2,0.3-0.2,0.6,0.1,0.9c0.9,0.8,1.8,1.7,2.7,2.6c0.3,0.3,0.7,0.6,0.8,1.1c0.3,0.8,0,1.8-0.8,2.3
		c-0.8,0.5-1.7,0.4-2.3-0.3c-1.1-1.4-2.5-2.5-3.7-3.7c-2.1-2.1-4.2-4.1-6.6-5.9c-0.4-0.3-0.8-0.6-1.2-0.8c-1.1-0.5-1.8-2-1.4-3.1
		c1.2-3.6,3.4-6.5,6.8-8.4c0.8-0.5,1.7-0.8,2.6-1c2.3-0.4,4.3,0.6,5.4,2.7C96.7,268.1,97,269.5,96.9,271.1z M90.6,278.4
		c1.6-2.3,2.5-4.7,2.6-7.4c0-0.7-0.1-1.3-0.3-2c-0.4-1.3-1-1.6-2.3-1.2c-0.1,0-0.2,0.1-0.3,0.1c-2.4,1.1-4.1,2.8-5.2,5.1
		c-0.2,0.5-0.1,0.7,0.3,1c1.2,0.9,2.3,1.9,3.4,2.9C89.5,277.4,90.1,277.9,90.6,278.4z"/>
	<path class="st1" d="M301.7,209c0.4-0.7,0.7-1.3,1-2c0.3-0.5,0.6-0.9,1.2-1.1c0.7-0.2,1.3-0.1,1.8,0.4c0.5,0.6,0.6,1.2,0.4,1.9
		c-0.2,0.5-0.4,0.9-0.6,1.3c-0.2,0.5-0.5,1-0.8,1.5c-0.2,0.3-0.1,0.5,0.1,0.7c1.3,1.1,2.6,2.3,3.9,3.4c0.3-0.1,0.3-0.3,0.3-0.5
		c0.5-2.4,1-4.9,1.5-7.3c0.1-0.4,0.2-0.8,0.4-1.1c0.4-0.6,1.2-1,1.9-0.8c0.7,0.2,1.3,0.8,1.4,1.5c0,0.4,0,0.7-0.1,1.1
		c-0.7,3.2-1.3,6.5-2,9.7c-0.1,0.4-0.2,0.9-0.4,1.3c-0.6,1.1-1.8,1.4-2.9,0.8c-0.5-0.3-0.9-0.6-1.3-1c-3.9-3.3-7.8-6.7-11.7-10
		c-1-0.9-2.1-1.8-3.2-2.6c-0.9-0.7-1.3-1.8-1-2.9c0.2-0.7,0.5-1.4,0.8-2c0.7-1.6,1.6-3.1,2.1-4.7c0.3-1,1.6-1.5,2.6-1.1
		c1,0.4,1.4,1.4,1,2.5c-0.7,1.6-1.4,3.1-2.2,4.6c-0.6,1.4-0.7,1,0.4,1.9c1.5,1.3,3,2.5,4.4,3.8C301,208.5,301.3,208.8,301.7,209z"/>
	<path class="st14" d="M339.1,84.6c-0.1,1.8,0.3,3.3,1.3,4.7c1.2,1.6,2.7,2,4.5,1.1c1.2-0.6,2.1-1.6,2.7-2.8
		c0.7-1.4,1.1-2.8,1.5-4.3c0.1-0.4,0.2-0.8,0.3-1.2c0.3-0.9,1-1.4,1.9-1.2c0.9,0.2,1.5,0.9,1.4,1.9c-0.1,0.5-0.2,1-0.3,1.4
		c-0.4,1.7-1,3.4-1.8,5c-0.7,1.3-1.5,2.4-2.6,3.4c-3.1,2.6-8.6,2.4-10.9-2.1c-1.1-2.2-1.5-4.5-1.2-6.9c0.1-1.1,0.7-1.6,1.6-1.6
		c1,0.1,1.7,0.9,1.7,1.9C339.1,84.2,339.1,84.4,339.1,84.6z"/>
	<path class="st0" d="M77,317.8c-2.4,0-4.5-1.7-4.9-3.8c-0.4-2,1.1-4,3.1-4.4c0.3-0.1,0.6-0.1,0.9-0.2c1.2-0.4,2.2-0.2,3.1,0.7
		c2,1.9,1.9,4.8,0.3,6.7C78.9,317.5,78,317.8,77,317.8z"/>
	<path class="st1" d="M80.6,329.3c1.7,0,2.9,0.9,3.2,2.3c0.1,0.4,0.2,0.7,0.4,1c0.6,1.4,0.4,2.9-0.6,3.9c-1.1,1-2.3,1.2-3.7,0.7
		c-2.5-0.9-3.6-3.7-2.4-5.9C78.3,330,79.4,329.4,80.6,329.3z"/>
	<path class="st1" d="M308.5,180.6c0.1,0,0.2,0,0.3,0c2,0.2,3.7,2.9,3.2,4.8c-0.5,1.6-1.5,2.6-3.1,3c-1.5,0.3-3-0.4-3.8-1.8
		c-0.8-1.4-0.7-2.9,0.4-4.1c0.2-0.3,0.5-0.6,0.7-0.8C306.8,181,307.5,180.5,308.5,180.6z"/>
	<path class="st1" d="M81.5,298.1c-2.2,0-4-1.8-4-4.1c0-2,1.5-3.5,3.5-3.5c2.1,0,3.9,1.9,4,4.1C85,296.6,83.4,298.1,81.5,298.1z"/>
	<path class="st0" d="M316.2,169.6c0,2.4-2.1,3.9-4.6,3.2c-2.1-0.6-3.3-3.1-2.5-5.1c0.4-1.1,1.4-1.8,2.5-1.7c0.9,0,1.8,0.2,2.6,0.6
		C315.5,167.1,316.2,168.2,316.2,169.6z"/>
	<path class="st1" d="M315.6,159c-0.8,0-1.9-0.7-2.5-2c-0.7-1.3-0.6-2.6,0.3-3.8c0.9-1.3,2.8-1.8,4.1-0.7c0.2,0.2,0.4,0.3,0.6,0.4
		c1.3,0.8,1.8,2.2,1.4,3.7C318.9,158.2,317.8,159.1,315.6,159z"/>
</g>
</svg>
